<svg xmlns="http://www.w3.org/2000/svg" viewBox="0 0 900 565" role="img" aria-label="2023 protein supply by country, animal and plant origin; grams per person per day. Exact values are in the following table." style="font-family:Arial,sans-serif;background:#fff;color:#22252a"><text x="156" y="20" font-size="14" fill="#626970">Protein supply · g/person/day · 2023</text><line x1="156" y1="35" x2="156" y2="470" stroke="#dddeda"/><text x="156" y="491" font-size="12" text-anchor="middle" fill="#626970">0</text><line x1="251.71428571428572" y1="35" x2="251.71428571428572" y2="470" stroke="#dddeda"/><text x="251.71428571428572" y="491" font-size="12" text-anchor="middle" fill="#626970">20</text><line x1="347.42857142857144" y1="35" x2="347.42857142857144" y2="470" stroke="#dddeda"/><text x="347.42857142857144" y="491" font-size="12" text-anchor="middle" fill="#626970">40</text><line x1="443.1428571428571" y1="35" x2="443.1428571428571" y2="470" stroke="#dddeda"/><text x="443.1428571428571" y="491" font-size="12" text-anchor="middle" fill="#626970">60</text><line x1="538.8571428571429" y1="35" x2="538.8571428571429" y2="470" stroke="#dddeda"/><text x="538.8571428571429" y="491" font-size="12" text-anchor="middle" fill="#626970">80</text><line x1="634.5714285714286" y1="35" x2="634.5714285714286" y2="470" stroke="#dddeda"/><text x="634.5714285714286" y="491" font-size="12" text-anchor="middle" fill="#626970">100</text><line x1="730.2857142857142" y1="35" x2="730.2857142857142" y2="470" stroke="#dddeda"/><text x="730.2857142857142" y="491" font-size="12" text-anchor="middle" fill="#626970">120</text><line x1="826" y1="35" x2="826" y2="470" stroke="#dddeda"/><text x="826" y="491" font-size="12" text-anchor="middle" fill="#626970">140</text><text x="144" y="66" font-size="14" text-anchor="end" fill="#22252a">United States</text><rect x="156" y="50" width="396.7357142857143" height="23" fill="#9a502f"/><rect x="552.7357142857143" y="50" width="192.3857142857143" height="23" fill="#257568"/><text x="752.1214285714286" y="66" font-size="13" fill="#22252a">123.1</text><text x="144" y="101" font-size="14" text-anchor="end" fill="#22252a">Germany</text><rect x="156" y="85" width="352.2285714285714" height="23" fill="#9a502f"/><rect x="508.2285714285714" y="85" width="170.37142857142857" height="23" fill="#257568"/><text x="685.5999999999999" y="101" font-size="13" fill="#22252a">109.2</text><text x="144" y="136" font-size="14" text-anchor="end" fill="#22252a">United Kingdom</text><rect x="156" y="120" width="311.54999999999995" height="23" fill="#9a502f"/><rect x="467.54999999999995" y="120" width="214.87857142857143" height="23" fill="#257568"/><text x="689.4285714285713" y="136" font-size="13" fill="#22252a">110.0</text><text x="144" y="171" font-size="14" text-anchor="end" fill="#22252a">Netherlands</text><rect x="156" y="155" width="390.03571428571433" height="23" fill="#9a502f"/><rect x="546.0357142857143" y="155" width="170.37142857142857" height="23" fill="#257568"/><text x="723.4071428571428" y="171" font-size="13" fill="#22252a">117.1</text><text x="144" y="206" font-size="14" text-anchor="end" fill="#22252a">Denmark</text><rect x="156" y="190" width="415.4" height="23" fill="#9a502f"/><rect x="571.4" y="190" width="189.03571428571428" height="23" fill="#257568"/><text x="767.4357142857143" y="206" font-size="13" fill="#22252a">126.3</text><text x="144" y="241" font-size="14" text-anchor="end" fill="#22252a">China</text><rect x="156" y="225" width="259.3857142857143" height="23" fill="#9a502f"/><rect x="415.3857142857143" y="225" width="367.54285714285714" height="23" fill="#257568"/><text x="789.9285714285714" y="241" font-size="13" fill="#22252a">131.0</text><text x="144" y="276" font-size="14" text-anchor="end" fill="#22252a">India</text><rect x="156" y="260" width="95.71428571428571" height="23" fill="#9a502f"/><rect x="251.71428571428572" y="260" width="261.3" height="23" fill="#257568"/><text x="520.0142857142857" y="276" font-size="13" fill="#22252a">74.6</text><text x="144" y="311" font-size="14" text-anchor="end" fill="#22252a">Brazil</text><rect x="156" y="295" width="325.42857142857144" height="23" fill="#9a502f"/><rect x="481.42857142857144" y="295" width="184.25000000000003" height="23" fill="#257568"/><text x="672.6785714285714" y="311" font-size="13" fill="#22252a">106.5</text><text x="144" y="346" font-size="14" text-anchor="end" fill="#22252a">South Africa</text><rect x="156" y="330" width="174.67857142857144" height="23" fill="#9a502f"/><rect x="330.67857142857144" y="330" width="204.35" height="23" fill="#257568"/><text x="542.0285714285715" y="346" font-size="13" fill="#22252a">79.2</text><text x="144" y="381" font-size="14" text-anchor="end" fill="#22252a">Kenya</text><rect x="156" y="365" width="69.39285714285715" height="23" fill="#9a502f"/><rect x="225.39285714285717" y="365" width="197.64999999999998" height="23" fill="#257568"/><text x="430.04285714285714" y="381" font-size="13" fill="#22252a">55.8</text><text x="144" y="416" font-size="14" text-anchor="end" fill="#22252a">Nigeria</text><rect x="156" y="400" width="31.585714285714282" height="23" fill="#9a502f"/><rect x="187.5857142857143" y="400" width="241.2" height="23" fill="#257568"/><text x="435.7857142857143" y="416" font-size="13" fill="#22252a">57.0</text><text x="144" y="451" font-size="14" text-anchor="end" fill="#22252a">Zimbabwe</text><rect x="156" y="435" width="149.79285714285714" height="23" fill="#9a502f"/><rect x="305.79285714285714" y="435" width="180.89999999999998" height="23" fill="#257568"/><text x="493.6928571428571" y="451" font-size="13" fill="#22252a">69.1</text><rect x="156" y="507" width="13" height="13" fill="#9a502f"/><text x="177" y="519" font-size="13">Animal origin</text><rect x="310" y="507" width="13" height="13" fill="#257568"/><text x="331" y="519" font-size="13">Plant origin (derived)</text><text x="156" y="551" font-size="11" fill="#626970">Source: FAO, Statistical Yearbook 2025, Table 50, pp. 325–329 · CC BY 4.0 · supply ≠ intake</text></svg>